<svg width="415.963" height="415.963" xmlns="http://www.w3.org/2000/svg">

 <g>
  <title>background</title>
  <rect fill="none" id="canvas_background" height="602" width="802" y="-1" x="-1"/>
 </g>
 <g>
  <title>Layer 1</title>
  <path id="svg_1" d="m328.712,264.539c12.928,-21.632 21.504,-48.992 23.168,-76.064c1.056,-17.376 -2.816,-35.616 -11.2,-52.768c-13.152,-26.944 -35.744,-42.08 -57.568,-56.704c-16.288,-10.912 -31.68,-21.216 -42.56,-35.936l-1.952,-2.624c-6.432,-8.64 -13.696,-18.432 -14.848,-26.656c-1.152,-8.32 -8.704,-14.24 -16.96,-13.76c-8.384,0.576 -14.88,7.52 -14.88,15.936l0,285.12c-13.408,-8.128 -29.92,-13.12 -48,-13.12c-44.096,0 -80,28.704 -80,64s35.904,64 80,64s80,-28.704 80,-64l0,-186.496c24.032,9.184 63.36,32.576 74.176,87.2c-2.016,2.976 -3.936,6.176 -6.176,8.736c-5.856,6.624 -5.216,16.736 1.44,22.56c6.592,5.888 16.704,5.184 22.56,-1.44c4.288,-4.864 8.096,-10.56 11.744,-16.512c0.384,-0.448 0.737,-0.928 1.056,-1.472z"/>
  <g id="svg_2"/>
  <g id="svg_3"/>
  <g id="svg_4"/>
  <g id="svg_5"/>
  <g id="svg_6"/>
  <g id="svg_7"/>
  <g id="svg_8"/>
  <g id="svg_9"/>
  <g id="svg_10"/>
  <g id="svg_11"/>
  <g id="svg_12"/>
  <g id="svg_13"/>
  <g id="svg_14"/>
  <g id="svg_15"/>
  <g id="svg_16"/>
  <line stroke="#000" stroke-linecap="undefined" stroke-linejoin="undefined" id="svg_17" y2="408.43462" x2="341.48151" y1="8.08951" x1="80.48151" stroke-width="23.5" fill="none"/>
 </g>
</svg>